<svg xmlns="http://www.w3.org/2000/svg" viewBox="0 0 600 350" width="100%" height="100%">
  <defs>
    <linearGradient id="kopi-bg" x1="0%" y1="0%" x2="100%" y2="100%">
      <stop offset="0%" stop-color="#4A2810" />
      <stop offset="100%" stop-color="#8B5A2B" />
    </linearGradient>
  </defs>
  <rect width="600" height="350" fill="url(#kopi-bg)" rx="10" />
  <circle cx="300" cy="140" r="65" fill="rgba(255,255,255,0.15)" />
  <!-- Coffee Cup / Analytics Motif -->
  <path d="M265 130 h60 v35 c0 12 -8 20 -20 20 h-20 c-12 0 -20 -8 -20 -20 z" fill="#ffffff" />
  <path d="M325 138 h12 c6 0 10 4 10 10 0 6 -4 10 -10 10 h-12 z" fill="none" stroke="#ffffff" stroke-width="4" />
  <path d="M255 195 h80 v5 h-80 z" fill="#ffffff" rx="2.5" />
  <!-- Steam lines -->
  <path d="M280 115 q-5 -10 0 -20" stroke="#FFF" stroke-width="3" fill="none" stroke-linecap="round" />
  <path d="M295 112 q-5 -10 0 -20" stroke="#FFF" stroke-width="3" fill="none" stroke-linecap="round" />
  <path d="M310 115 q-5 -10 0 -20" stroke="#FFF" stroke-width="3" fill="none" stroke-linecap="round" />
  <text x="300" y="245" font-family="'Poppins', sans-serif" font-size="28" font-weight="700" fill="#ffffff" text-anchor="middle">Admin Kopi</text>
  <text x="300" y="280" font-family="'Poppins', sans-serif" font-size="16" font-weight="400" fill="rgba(255,255,255,0.9)" text-anchor="middle">Sistem Afiliasi Penjualan (Vybrasi Affiliate)</text>
</svg>

